# xmcd CD database file
#
# Track frame offsets:
#	150
#	37390
#	48262
#	99182
#	122039
#	147200
#	167171
#	197930
#	209120
#	232728
#	250081
#	271879
#
# Disc length: 4168 seconds
#
# Revision: 0
# Processed by: cddbd v1.5.2PL0 Copyright (c) Steve Scherf et al.
# Submitted via: CDex 1.70beta2
#
DISCID=ad10460c
DTITLE=The Christian Howes Group - 2004 Compliation
DYEAR=2004
DGENRE=Jazz
TTITLE0=Song For my Daughter (Songs For My Daughter)
TTITLE1=Guitar Song (Songs For My Daughter)
TTITLE2=Conejiltrami (Songs For My Daughter)
TTITLE3=New Pastorale (Songs For My Daughter)
TTITLE4=Capriccio 24 (Klazyc)
TTITLE5=Vergnügte Ruh, beliebte Seelenust (Klazyc)
TTITLE6=Le petet nègre (Klazyc)
TTITLE7=The Way You Look Tonight (Jazz Fiddle Revolution)
TTITLE8=Fugue in G Minor for solo violin (Jazz Fiddle Revolution)
TTITLE9=It Never Entered My Mind (Jazz Fiddle Revolution)
TTITLE10=Ode to Billie Joe (LIVE!)
TTITLE11=Felonious Thunk (LIVE!)
EXTD=YEAR: 2004
EXTT0=
EXTT1=
EXTT2=
EXTT3=
EXTT4=
EXTT5=
EXTT6=
EXTT7=
EXTT8=
EXTT9=
EXTT10=
EXTT11=
PLAYORDER=
